:SAMPLES-PER-SECOND 30
:FULLY-SPECIFIED
:DEGREES
280
root  37.2972 38.6528 3.63543 -134.64 87.3356 -126.899
RightUpLeg  6.4039 -7.24088 4.48633
RightLeg  15.8219 2.42191 2.07173
RightFoot  -13.777 -0.171181 -3.66444
RightToes  5.23868e-010 0 -3.6325e-017
Spine  3.9662 0.06493 11.0751
Spine1  10.6734 1.03185 -0.868283
HEad  -3.21615 0.771322 -1.86681
LeftShoulder1  -0.512565 4.88259 -30.9489
LeftArm  -10.5204 11.6981 -34.4149
LeftForeArm  77.731 -78.7998 -99.379
LeftHand  0.0201116 4.10603 -4.16365
RightShoulder  -0.709142 -5.58073 27.4663
RightArm  -11.8233 -13.8264 32.4678
RightForeArm  107.55 72.4131 139.963
RightHand  -0.0366867 -3.56733 -1.17832
LeftUpLeg  -18.3718 -0.760452 4.59046
LeftLeg  32.0776 -5.70506 -3.4737
LeftFoot  -1.45602 0.409627 -4.65085
LeftToes  -4.9204e-010 1.02043e-011 -1.81609e-011
281
root  38.3801 38.6729 3.68962 -135.172 87.5747 -127.832
RightUpLeg  8.81175 -7.32491 4.1052
RightLeg  13.8449 2.78695 2.21404
RightFoot  -14.4924 -0.201053 -3.76604
RightToes  5.23868e-010 0 -3.6325e-017
Spine  2.94972 0.293388 11.3311
Spine1  10.9039 1.41385 -2.44591
HEad  -2.64278 0.571948 -1.17264
LeftShoulder1  -0.353825 4.48987 -29.7549
LeftArm  -11.0257 12.1289 -35.378
LeftForeArm  79.3395 -78.7496 -100.933
LeftHand  -0.00433303 4.68913 -4.1955
RightShoulder  -0.827355 -5.88676 28.1187
RightArm  -11.8084 -13.5401 32.2639
RightForeArm  107.514 72.3674 140.07
RightHand  -0.0349848 -4.17734 -1.45877
LeftUpLeg  -17.915 0.383632 3.6173
LeftLeg  21.1232 -6.5005 -2.45888
LeftFoot  -0.903275 0.458675 -4.95911
LeftToes  -4.9204e-010 1.02043e-011 -1.81609e-011
282
root  39.4506 38.6335 3.7456 -133.818 87.7787 -127.057
RightUpLeg  10.8936 -7.21853 3.94897
RightLeg  12.0786 3.06846 2.175
RightFoot  -15.3301 -0.228963 -3.5836
RightToes  5.23868e-010 0 -3.6325e-017
Spine  1.68113 0.541177 10.0908
Spine1  11.4762 1.21633 -1.71772
HEad  -2.58363 0.522676 -0.948238
LeftShoulder1  -0.445355 4.73117 -30.137
LeftArm  -10.7172 11.3979 -34.9429
LeftForeArm  78.4481 -78.7877 -99.9535
LeftHand  0.0178265 4.13598 -4.07141
RightShoulder  -0.802241 -5.83683 27.7672
RightArm  -11.6563 -13.1718 32.4946
RightForeArm  106.535 72.5485 139.48
RightHand  -0.0284396 -3.66285 -1.26518
LeftUpLeg  -17.2289 1.98574 2.43913
LeftLeg  10.207 -5.69532 -0.886979
LeftFoot  -0.166834 0.54048 -5.52655
LeftToes  -4.9204e-010 1.02043e-011 -1.81609e-011
283
root  40.6325 38.5105 3.79868 -133.145 87.8776 -126.939
RightUpLeg  12.9123 -7.33567 3.73634
RightLeg  10.8871 3.3443 2.25593
RightFoot  -16.4253 -0.287825 -3.97715
RightToes  5.23868e-010 0 -3.6325e-017
Spine  0.0772451 0.695745 9.62823
Spine1  12.1296 1.33799 -2.25611
HEad  -2.23588 0.519241 -0.0775683
LeftShoulder1  -0.400015 4.62842 -29.413
LeftArm  -10.5913 11.5074 -35.1323
LeftForeArm  79.1659 -78.749 -100.848
LeftHand  0.000932278 4.52098 -3.86941
RightShoulder  -0.862305 -5.97964 28.2381
RightArm  -11.732 -13.0675 32.3903
RightForeArm  106.023 72.682 139.065
RightHand  -0.0282451 -3.53201 -0.848241
LeftUpLeg  -16.6208 3.09711 1.49693
LeftLeg  1.50222 -4.08239 -0.407152
LeftFoot  1.27711 0.632096 -5.76915
LeftToes  -4.9204e-010 1.02043e-011 -1.81609e-011
284
root  41.8416 38.2818 3.79979 -125.026 87.9819 -119.144
RightUpLeg  14.7176 -7.29815 3.79617
RightLeg  10.7132 3.45587 1.99304
RightFoot  -17.975 -0.352764 -4.0042
RightToes  5.23868e-010 0 -3.6325e-017
Spine  -1.10801 0.841477 9.16928
Spine1  12.7526 1.38371 -2.18393
HEad  -2.2726 0.625094 0.344031
LeftShoulder1  -0.389314 4.60035 -29.3293
LeftArm  -10.6761 11.1234 -35.0413
LeftForeArm  78.5612 -78.7214 -100.874
LeftHand  -0.0135395 4.83179 -3.4953
RightShoulder  -0.860238 -5.96716 28.3148
RightArm  -11.4221 -12.7346 32.373
RightForeArm  105.197 72.8361 138.544
RightHand  -0.0278284 -3.68167 -1.18893
LeftUpLeg  -16.4527 3.06247 1.16397
LeftLeg  -2.88569 -0.853486 -0.840514
LeftFoot  1.76882 0.822574 -7.24402
LeftToes  -4.9204e-010 1.02043e-011 -1.81609e-011
285
root  43.0905 37.952 3.76281 -123.089 87.7736 -117.478
RightUpLeg  16.1833 -7.60588 3.69299
RightLeg  11.6721 3.66963 2.04207
RightFoot  -19.9959 -0.406778 -3.58186
RightToes  5.23868e-010 0 -3.6325e-017
Spine  -1.93663 0.847795 8.58069
Spine1  13.089 1.15829 -1.46719
HEad  -2.3033 0.475954 0.600579
LeftShoulder1  -0.438569 4.7292 -29.6084
LeftArm  -10.519 10.5447 -34.883
LeftForeArm  78.8294 -78.7494 -100.665
LeftHand  -0.01586 4.98554 -4.49137
RightShoulder  -0.772874 -5.76136 27.6187
RightArm  -11.5236 -12.9504 32.7919
RightForeArm  105.516 72.7958 138.694
RightHand  -0.0285063 -3.54454 -0.749952
LeftUpLeg  -17.2456 2.40641 0.51837
LeftLeg  -1.87572 1.11836 -0.779356
LeftFoot  1.75861 0.71062 -6.24319
LeftToes  -4.9204e-010 1.02043e-011 -1.81609e-011
286
root  44.3421 37.6709 3.72091 -122.183 87.8071 -116.513
RightUpLeg  18.2147 -8.3123 2.93052
RightLeg  12.2807 4.581 2.36718
RightFoot  -21.5739 -0.417161 -3.03284
RightToes  5.23868e-010 0 -3.6325e-017
Spine  -2.11635 0.949587 8.24659
Spine1  13.3684 1.40369 -1.87163
HEad  -2.41322 0.295816 1.3781
LeftShoulder1  -0.372366 4.56549 -28.9094
LeftArm  -9.98565 9.67821 -35.2819
LeftForeArm  77.2646 -78.7934 -99.1958
LeftHand  -0.0243167 5.17746 -4.59301
RightShoulder  -0.786577 -5.83079 27.1686
RightArm  -11.7791 -13.5224 33.0738
RightForeArm  105.766 72.6564 139.089
RightHand  -0.030725 -3.80772 -0.757166
LeftUpLeg  -18.47 1.83313 -0.395061
LeftLeg  2.89062 1.26877 -0.426785
LeftFoot  4.46803 0.266896 -2.34217
LeftToes  -4.9204e-010 1.02043e-011 -1.81609e-011
287
root  45.6346 37.4764 3.70257 -127.826 88.5925 -122.481
RightUpLeg  19.6296 -8.80319 1.55748
RightLeg  13.3258 6.15182 2.27035
RightFoot  -22.5627 -0.317626 -1.68284
RightToes  5.23868e-010 0 -3.6325e-017
Spine  -3.76412 1.17216 6.15778
Spine1  15.1731 1.41182 -1.08616
HEad  -3.5772 0.523694 1.47921
LeftShoulder1  -0.462396 4.79109 -29.7556
LeftArm  -9.40797 7.25339 -34.2772
LeftForeArm  71.7847 -78.8462 -94.8882
LeftHand  -0.0364557 5.43769 -4.2704
RightShoulder  -0.673261 -5.51965 26.7209
RightArm  -11.8169 -12.3359 33.3131
RightForeArm  102.938 73.4601 136.476
RightHand  -0.0331818 -3.72023 -0.954138
LeftUpLeg  -19.8969 1.5123 -1.67207
LeftLeg  7.33376 1.09372 -0.0509956
LeftFoot  10.53 -0.511357 2.37385
LeftToes  -4.9204e-010 1.02043e-011 -1.81609e-011
